<svg id="visual" viewBox="0 0 900 450" width="900" height="450" xmlns="http://www.w3.org/2000/svg" xmlns:xlink="http://www.w3.org/1999/xlink" version="1.1"><path d="M0 83L21.5 85.2C43 87.3 86 91.7 128.8 91.2C171.7 90.7 214.3 85.3 257.2 77.8C300 70.3 343 60.7 385.8 61.7C428.7 62.7 471.3 74.3 514.2 75C557 75.7 600 65.3 642.8 60.3C685.7 55.3 728.3 55.7 771.2 53.7C814 51.7 857 47.3 878.5 45.2L900 43L900 0L878.5 0C857 0 814 0 771.2 0C728.3 0 685.7 0 642.8 0C600 0 557 0 514.2 0C471.3 0 428.7 0 385.8 0C343 0 300 0 257.2 0C214.3 0 171.7 0 128.8 0C86 0 43 0 21.5 0L0 0Z" fill="#00b2ff" stroke-linecap="round" stroke-linejoin="miter"></path></svg>