<svg id="visual" viewBox="0 0 960 540" width="960" height="540" xmlns="http://www.w3.org/2000/svg" xmlns:xlink="http://www.w3.org/1999/xlink" version="1.1"><rect x="0" y="0" width="960" height="540" fill="#051937"></rect><path d="M0 365L22.8 357.2C45.7 349.3 91.3 333.7 137 320.7C182.7 307.7 228.3 297.3 274 303C319.7 308.7 365.3 330.3 411.2 332.2C457 334 503 316 548.8 310.2C594.7 304.3 640.3 310.7 686 306.5C731.7 302.3 777.3 287.7 823 280.2C868.7 272.7 914.3 272.3 937.2 272.2L960 272L960 541L937.2 541C914.3 541 868.7 541 823 541C777.3 541 731.7 541 686 541C640.3 541 594.7 541 548.8 541C503 541 457 541 411.2 541C365.3 541 319.7 541 274 541C228.3 541 182.7 541 137 541C91.3 541 45.7 541 22.8 541L0 541Z" fill="#69b4fa"></path><path d="M0 358L22.8 358.8C45.7 359.7 91.3 361.3 137 367.3C182.7 373.3 228.3 383.7 274 391C319.7 398.3 365.3 402.7 411.2 389.8C457 377 503 347 548.8 337C594.7 327 640.3 337 686 340C731.7 343 777.3 339 823 346.5C868.7 354 914.3 373 937.2 382.5L960 392L960 541L937.2 541C914.3 541 868.7 541 823 541C777.3 541 731.7 541 686 541C640.3 541 594.7 541 548.8 541C503 541 457 541 411.2 541C365.3 541 319.7 541 274 541C228.3 541 182.7 541 137 541C91.3 541 45.7 541 22.8 541L0 541Z" fill="#3995f5"></path><path d="M0 416L22.8 418C45.7 420 91.3 424 137 415.7C182.7 407.3 228.3 386.7 274 376.5C319.7 366.3 365.3 366.7 411.2 377.7C457 388.7 503 410.3 548.8 414.8C594.7 419.3 640.3 406.7 686 403.5C731.7 400.3 777.3 406.7 823 412.7C868.7 418.7 914.3 424.3 937.2 427.2L960 430L960 541L937.2 541C914.3 541 868.7 541 823 541C777.3 541 731.7 541 686 541C640.3 541 594.7 541 548.8 541C503 541 457 541 411.2 541C365.3 541 319.7 541 274 541C228.3 541 182.7 541 137 541C91.3 541 45.7 541 22.8 541L0 541Z" fill="#0075ec"></path><path d="M0 442L22.8 443.8C45.7 445.7 91.3 449.3 137 446.8C182.7 444.3 228.3 435.7 274 437.7C319.7 439.7 365.3 452.3 411.2 452.5C457 452.7 503 440.3 548.8 441C594.7 441.7 640.3 455.3 686 462.8C731.7 470.3 777.3 471.7 823 470C868.7 468.3 914.3 463.7 937.2 461.3L960 459L960 541L937.2 541C914.3 541 868.7 541 823 541C777.3 541 731.7 541 686 541C640.3 541 594.7 541 548.8 541C503 541 457 541 411.2 541C365.3 541 319.7 541 274 541C228.3 541 182.7 541 137 541C91.3 541 45.7 541 22.8 541L0 541Z" fill="#0051dd"></path><path d="M0 499L22.8 498.8C45.7 498.7 91.3 498.3 137 497C182.7 495.7 228.3 493.3 274 488C319.7 482.7 365.3 474.3 411.2 476.2C457 478 503 490 548.8 497.2C594.7 504.3 640.3 506.7 686 505.7C731.7 504.7 777.3 500.3 823 498.8C868.7 497.3 914.3 498.7 937.2 499.3L960 500L960 541L937.2 541C914.3 541 868.7 541 823 541C777.3 541 731.7 541 686 541C640.3 541 594.7 541 548.8 541C503 541 457 541 411.2 541C365.3 541 319.7 541 274 541C228.3 541 182.7 541 137 541C91.3 541 45.7 541 22.8 541L0 541Z" fill="#2924c7"></path></svg>