<svg id="visual" viewBox="0 0 900 450" width="900" height="450" xmlns="http://www.w3.org/2000/svg" xmlns:xlink="http://www.w3.org/1999/xlink" version="1.1"><rect x="0" y="0" width="900" height="450" fill="#051937"></rect><defs><linearGradient id="grad1_0" x1="50%" y1="0%" x2="100%" y2="100%"><stop offset="10%" stop-color="#00b2ff" stop-opacity="1"></stop><stop offset="90%" stop-color="#00b2ff" stop-opacity="1"></stop></linearGradient></defs><defs><linearGradient id="grad1_1" x1="50%" y1="0%" x2="100%" y2="100%"><stop offset="10%" stop-color="#00b2ff" stop-opacity="1"></stop><stop offset="90%" stop-color="#1b95dc" stop-opacity="1"></stop></linearGradient></defs><defs><linearGradient id="grad1_2" x1="50%" y1="0%" x2="100%" y2="100%"><stop offset="10%" stop-color="#2079b8" stop-opacity="1"></stop><stop offset="90%" stop-color="#1b95dc" stop-opacity="1"></stop></linearGradient></defs><defs><linearGradient id="grad1_3" x1="50%" y1="0%" x2="100%" y2="100%"><stop offset="10%" stop-color="#2079b8" stop-opacity="1"></stop><stop offset="90%" stop-color="#1e5f96" stop-opacity="1"></stop></linearGradient></defs><defs><linearGradient id="grad1_4" x1="50%" y1="0%" x2="100%" y2="100%"><stop offset="10%" stop-color="#194675" stop-opacity="1"></stop><stop offset="90%" stop-color="#1e5f96" stop-opacity="1"></stop></linearGradient></defs><defs><linearGradient id="grad1_5" x1="50%" y1="0%" x2="100%" y2="100%"><stop offset="10%" stop-color="#194675" stop-opacity="1"></stop><stop offset="90%" stop-color="#102e55" stop-opacity="1"></stop></linearGradient></defs><defs><linearGradient id="grad1_6" x1="50%" y1="0%" x2="100%" y2="100%"><stop offset="10%" stop-color="#051937" stop-opacity="1"></stop><stop offset="90%" stop-color="#102e55" stop-opacity="1"></stop></linearGradient></defs><defs><linearGradient id="grad2_0" x1="0%" y1="0%" x2="50%" y2="100%"><stop offset="10%" stop-color="#00b2ff" stop-opacity="1"></stop><stop offset="90%" stop-color="#00b2ff" stop-opacity="1"></stop></linearGradient></defs><defs><linearGradient id="grad2_1" x1="0%" y1="0%" x2="50%" y2="100%"><stop offset="10%" stop-color="#1b95dc" stop-opacity="1"></stop><stop offset="90%" stop-color="#00b2ff" stop-opacity="1"></stop></linearGradient></defs><defs><linearGradient id="grad2_2" x1="0%" y1="0%" x2="50%" y2="100%"><stop offset="10%" stop-color="#1b95dc" stop-opacity="1"></stop><stop offset="90%" stop-color="#2079b8" stop-opacity="1"></stop></linearGradient></defs><defs><linearGradient id="grad2_3" x1="0%" y1="0%" x2="50%" y2="100%"><stop offset="10%" stop-color="#1e5f96" stop-opacity="1"></stop><stop offset="90%" stop-color="#2079b8" stop-opacity="1"></stop></linearGradient></defs><defs><linearGradient id="grad2_4" x1="0%" y1="0%" x2="50%" y2="100%"><stop offset="10%" stop-color="#1e5f96" stop-opacity="1"></stop><stop offset="90%" stop-color="#194675" stop-opacity="1"></stop></linearGradient></defs><defs><linearGradient id="grad2_5" x1="0%" y1="0%" x2="50%" y2="100%"><stop offset="10%" stop-color="#102e55" stop-opacity="1"></stop><stop offset="90%" stop-color="#194675" stop-opacity="1"></stop></linearGradient></defs><defs><linearGradient id="grad2_6" x1="0%" y1="0%" x2="50%" y2="100%"><stop offset="10%" stop-color="#102e55" stop-opacity="1"></stop><stop offset="90%" stop-color="#051937" stop-opacity="1"></stop></linearGradient></defs><g transform="translate(900, 0)"><path d="M0 405C-53.3 396.6 -106.7 388.2 -151.5 365.9C-196.4 343.6 -232.7 307.4 -271.5 271.5C-310.3 235.7 -351.5 200.2 -374.2 155C-396.8 109.8 -400.9 54.9 -405 0L0 0Z" fill="#0a2346"></path><path d="M0 347.1C-45.7 339.9 -91.5 332.7 -129.9 313.6C-168.3 294.5 -199.5 263.5 -232.7 232.7C-266 202 -301.3 171.6 -320.7 132.8C-340.1 94.1 -343.6 47.1 -347.1 0L0 0Z" fill="#143a65"></path><path d="M0 289.3C-38.1 283.3 -76.2 277.3 -108.2 261.3C-140.3 245.4 -166.2 219.6 -193.9 193.9C-221.7 168.3 -251.1 143 -267.3 110.7C-283.4 78.4 -286.4 39.2 -289.3 0L0 0Z" fill="#1c5285"></path><path d="M0 231.4C-30.5 226.6 -61 221.8 -86.6 209.1C-112.2 196.3 -133 175.6 -155.2 155.2C-177.3 134.7 -200.9 114.4 -213.8 88.6C-226.8 62.7 -229.1 31.4 -231.4 0L0 0Z" fill="#206ca7"></path><path d="M0 173.6C-22.9 170 -45.7 166.4 -64.9 156.8C-84.2 147.2 -99.7 131.7 -116.4 116.4C-133 101 -150.7 85.8 -160.4 66.4C-170.1 47.1 -171.8 23.5 -173.6 0L0 0Z" fill="#1f87ca"></path><path d="M0 115.7C-15.2 113.3 -30.5 110.9 -43.3 104.5C-56.1 98.2 -66.5 87.8 -77.6 77.6C-88.7 67.3 -100.4 57.2 -106.9 44.3C-113.4 31.4 -114.5 15.7 -115.7 0L0 0Z" fill="#13a3ed"></path><path d="M0 57.9C-7.6 56.7 -15.2 55.5 -21.6 52.3C-28.1 49.1 -33.2 43.9 -38.8 38.8C-44.3 33.7 -50.2 28.6 -53.5 22.1C-56.7 15.7 -57.3 7.8 -57.9 0L0 0Z" fill="#00b2ff"></path></g><g transform="translate(0, 450)"><path d="M0 -405C52 -395 104.1 -384.9 151.2 -364.9C198.3 -344.9 240.4 -314.9 279.3 -279.3C318.2 -243.7 353.8 -202.5 374.2 -155C394.6 -107.5 399.8 -53.8 405 0L0 0Z" fill="#0a2346"></path><path d="M0 -347.1C44.6 -338.5 89.2 -330 129.6 -312.8C169.9 -295.6 206.1 -269.9 239.4 -239.4C272.7 -208.9 303.2 -173.5 320.7 -132.8C338.2 -92.1 342.7 -46.1 347.1 0L0 0Z" fill="#143a65"></path><path d="M0 -289.3C37.2 -282.1 74.3 -275 108 -260.7C141.6 -246.4 171.7 -224.9 199.5 -199.5C227.3 -174.1 252.7 -144.6 267.3 -110.7C281.8 -76.8 285.6 -38.4 289.3 0L0 0Z" fill="#1c5285"></path><path d="M0 -231.4C29.7 -225.7 59.5 -220 86.4 -208.5C113.3 -197.1 137.4 -180 159.6 -159.6C181.8 -139.3 202.2 -115.7 213.8 -88.6C225.5 -61.4 228.4 -30.7 231.4 0L0 0Z" fill="#206ca7"></path><path d="M0 -173.6C22.3 -169.3 44.6 -165 64.8 -156.4C85 -147.8 103 -135 119.7 -119.7C136.4 -104.4 151.6 -86.8 160.4 -66.4C169.1 -46.1 171.3 -23 173.6 0L0 0Z" fill="#1f87ca"></path><path d="M0 -115.7C14.9 -112.8 29.7 -110 43.2 -104.3C56.6 -98.5 68.7 -90 79.8 -79.8C90.9 -69.6 101.1 -57.8 106.9 -44.3C112.7 -30.7 114.2 -15.4 115.7 0L0 0Z" fill="#13a3ed"></path><path d="M0 -57.9C7.4 -56.4 14.9 -55 21.6 -52.1C28.3 -49.3 34.3 -45 39.9 -39.9C45.5 -34.8 50.5 -28.9 53.5 -22.1C56.4 -15.4 57.1 -7.7 57.9 0L0 0Z" fill="#00b2ff"></path></g></svg>