<svg id="visual" viewBox="0 0 900 600" width="900" height="600" xmlns="http://www.w3.org/2000/svg" xmlns:xlink="http://www.w3.org/1999/xlink" version="1.1"><path d="M0 376L21.5 376C43 376 86 376 128.8 383.5C171.7 391 214.3 406 257.2 415.7C300 425.3 343 429.7 385.8 431.5C428.7 433.3 471.3 432.7 514.2 434.3C557 436 600 440 642.8 438.5C685.7 437 728.3 430 771.2 421C814 412 857 401 878.5 395.5L900 390L900 601L878.5 601C857 601 814 601 771.2 601C728.3 601 685.7 601 642.8 601C600 601 557 601 514.2 601C471.3 601 428.7 601 385.8 601C343 601 300 601 257.2 601C214.3 601 171.7 601 128.8 601C86 601 43 601 21.5 601L0 601Z" fill="#00b2ff"></path><path d="M0 417L21.5 427.5C43 438 86 459 128.8 461.8C171.7 464.7 214.3 449.3 257.2 439.3C300 429.3 343 424.7 385.8 424C428.7 423.3 471.3 426.7 514.2 434.2C557 441.7 600 453.3 642.8 452C685.7 450.7 728.3 436.3 771.2 430C814 423.7 857 425.3 878.5 426.2L900 427L900 601L878.5 601C857 601 814 601 771.2 601C728.3 601 685.7 601 642.8 601C600 601 557 601 514.2 601C471.3 601 428.7 601 385.8 601C343 601 300 601 257.2 601C214.3 601 171.7 601 128.8 601C86 601 43 601 21.5 601L0 601Z" fill="#00c8ff"></path><path d="M0 499L21.5 491C43 483 86 467 128.8 464.2C171.7 461.3 214.3 471.7 257.2 472.8C300 474 343 466 385.8 460.2C428.7 454.3 471.3 450.7 514.2 454.2C557 457.7 600 468.3 642.8 467.7C685.7 467 728.3 455 771.2 458.5C814 462 857 481 878.5 490.5L900 500L900 601L878.5 601C857 601 814 601 771.2 601C728.3 601 685.7 601 642.8 601C600 601 557 601 514.2 601C471.3 601 428.7 601 385.8 601C343 601 300 601 257.2 601C214.3 601 171.7 601 128.8 601C86 601 43 601 21.5 601L0 601Z" fill="#00dcff"></path><path d="M0 533L21.5 530.2C43 527.3 86 521.7 128.8 520.3C171.7 519 214.3 522 257.2 517.2C300 512.3 343 499.7 385.8 498.7C428.7 497.7 471.3 508.3 514.2 513.2C557 518 600 517 642.8 511.8C685.7 506.7 728.3 497.3 771.2 500.2C814 503 857 518 878.5 525.5L900 533L900 601L878.5 601C857 601 814 601 771.2 601C728.3 601 685.7 601 642.8 601C600 601 557 601 514.2 601C471.3 601 428.7 601 385.8 601C343 601 300 601 257.2 601C214.3 601 171.7 601 128.8 601C86 601 43 601 21.5 601L0 601Z" fill="#00eef9"></path><path d="M0 540L21.5 538.8C43 537.7 86 535.3 128.8 533.7C171.7 532 214.3 531 257.2 532.5C300 534 343 538 385.8 541.8C428.7 545.7 471.3 549.3 514.2 550.3C557 551.3 600 549.7 642.8 548.7C685.7 547.7 728.3 547.3 771.2 547.5C814 547.7 857 548.3 878.5 548.7L900 549L900 601L878.5 601C857 601 814 601 771.2 601C728.3 601 685.7 601 642.8 601C600 601 557 601 514.2 601C471.3 601 428.7 601 385.8 601C343 601 300 601 257.2 601C214.3 601 171.7 601 128.8 601C86 601 43 601 21.5 601L0 601Z" fill="#00ffe8"></path></svg>