<svg id="visual" viewBox="0 0 900 450" width="900" height="450" xmlns="http://www.w3.org/2000/svg" xmlns:xlink="http://www.w3.org/1999/xlink" version="1.1"><rect x="0" y="0" width="900" height="450" fill="#002233"></rect><path d="M0 263L21.5 258.7C43 254.3 86 245.7 128.8 257.5C171.7 269.3 214.3 301.7 257.2 299C300 296.3 343 258.7 385.8 262.3C428.7 266 471.3 311 514.2 326C557 341 600 326 642.8 300C685.7 274 728.3 237 771.2 226C814 215 857 230 878.5 237.5L900 245L900 451L878.5 451C857 451 814 451 771.2 451C728.3 451 685.7 451 642.8 451C600 451 557 451 514.2 451C471.3 451 428.7 451 385.8 451C343 451 300 451 257.2 451C214.3 451 171.7 451 128.8 451C86 451 43 451 21.5 451L0 451Z" fill="#00b2ff" stroke-linecap="round" stroke-linejoin="miter"></path></svg>