<svg id="visual" viewBox="0 0 900 450" width="900" height="450" xmlns="http://www.w3.org/2000/svg" xmlns:xlink="http://www.w3.org/1999/xlink" version="1.1"><path d="M0 125L21.5 159C43 193 86 261 128.8 261.2C171.7 261.3 214.3 193.7 257.2 175.7C300 157.7 343 189.3 385.8 210.7C428.7 232 471.3 243 514.2 237.3C557 231.7 600 209.3 642.8 215.8C685.7 222.3 728.3 257.7 771.2 264.3C814 271 857 249 878.5 238L900 227L900 451L878.5 451C857 451 814 451 771.2 451C728.3 451 685.7 451 642.8 451C600 451 557 451 514.2 451C471.3 451 428.7 451 385.8 451C343 451 300 451 257.2 451C214.3 451 171.7 451 128.8 451C86 451 43 451 21.5 451L0 451Z" fill="#0494ff" stroke-linecap="round" stroke-linejoin="miter"></path></svg>