<svg id="visual" viewBox="0 0 960 540" width="960" height="540" xmlns="http://www.w3.org/2000/svg" xmlns:xlink="http://www.w3.org/1999/xlink" version="1.1"><rect x="0" y="0" width="960" height="540" fill="#001220"></rect><path d="M0 131L16 131.7C32 132.3 64 133.7 96 136.2C128 138.7 160 142.3 192 146.2C224 150 256 154 288 151C320 148 352 138 384 132.3C416 126.7 448 125.3 480 125.8C512 126.3 544 128.7 576 130.2C608 131.7 640 132.3 672 135.3C704 138.3 736 143.7 768 142.7C800 141.7 832 134.3 864 130.7C896 127 928 127 944 127L960 127L960 0L944 0C928 0 896 0 864 0C832 0 800 0 768 0C736 0 704 0 672 0C640 0 608 0 576 0C544 0 512 0 480 0C448 0 416 0 384 0C352 0 320 0 288 0C256 0 224 0 192 0C160 0 128 0 96 0C64 0 32 0 16 0L0 0Z" fill="#243dc7"></path><path d="M0 56L16 59C32 62 64 68 96 71.5C128 75 160 76 192 78.8C224 81.7 256 86.3 288 88.7C320 91 352 91 384 88C416 85 448 79 480 77.3C512 75.7 544 78.3 576 79.8C608 81.3 640 81.7 672 78.5C704 75.3 736 68.7 768 64.7C800 60.7 832 59.3 864 61C896 62.7 928 67.3 944 69.7L960 72L960 0L944 0C928 0 896 0 864 0C832 0 800 0 768 0C736 0 704 0 672 0C640 0 608 0 576 0C544 0 512 0 480 0C448 0 416 0 384 0C352 0 320 0 288 0C256 0 224 0 192 0C160 0 128 0 96 0C64 0 32 0 16 0L0 0Z" fill="#0494fc"></path></svg>